<svg xmlns="http://www.w3.org/2000/svg" xmlns:xlink="http://www.w3.org/1999/xlink" width="1920" zoomAndPan="magnify" viewBox="0 0 1440 809.999993" height="1080" preserveAspectRatio="xMidYMid meet" version="1.0"><defs><clipPath id="b7fbf208e6"><path d="M 758 322.101562 L 769 322.101562 L 769 346 L 758 346 Z M 758 322.101562 " clip-rule="nonzero"/></clipPath><clipPath id="b4a720c33e"><path d="M 605 379 L 791 379 L 791 487.101562 L 605 487.101562 Z M 605 379 " clip-rule="nonzero"/></clipPath></defs><path fill="#ffcc00" d="M 799.898438 393.402344 C 799.898438 394.59375 799.839844 395.777344 799.722656 396.960938 C 799.605469 398.144531 799.429688 399.320312 799.199219 400.484375 C 798.96875 401.652344 798.679688 402.804688 798.332031 403.941406 C 797.988281 405.082031 797.589844 406.199219 797.132812 407.296875 C 796.679688 408.394531 796.171875 409.46875 795.609375 410.519531 C 795.050781 411.566406 794.441406 412.585938 793.78125 413.574219 C 793.121094 414.5625 792.414062 415.515625 791.65625 416.4375 C 790.902344 417.355469 790.105469 418.234375 789.265625 419.078125 C 788.425781 419.917969 787.546875 420.714844 786.625 421.46875 C 785.707031 422.222656 784.753906 422.929688 783.765625 423.589844 C 782.777344 424.253906 781.757812 424.863281 780.710938 425.421875 C 779.664062 425.984375 778.589844 426.492188 777.492188 426.945312 C 776.394531 427.402344 775.273438 427.800781 774.136719 428.148438 C 773 428.492188 771.847656 428.78125 770.683594 429.011719 C 769.515625 429.246094 768.34375 429.417969 767.160156 429.535156 C 765.976562 429.652344 764.789062 429.710938 763.601562 429.710938 C 762.414062 429.710938 761.226562 429.652344 760.042969 429.535156 C 758.859375 429.417969 757.6875 429.246094 756.519531 429.011719 C 755.355469 428.78125 754.203125 428.492188 753.066406 428.148438 C 751.929688 427.800781 750.808594 427.402344 749.710938 426.945312 C 748.613281 426.492188 747.539062 425.984375 746.492188 425.421875 C 745.445312 424.863281 744.425781 424.253906 743.4375 423.589844 C 742.449219 422.929688 741.496094 422.222656 740.574219 421.46875 C 739.65625 420.714844 738.777344 419.917969 737.9375 419.078125 C 737.097656 418.234375 736.300781 417.355469 735.542969 416.4375 C 734.789062 415.515625 734.082031 414.5625 733.421875 413.574219 C 732.761719 412.585938 732.152344 411.566406 731.589844 410.519531 C 731.03125 409.46875 730.523438 408.394531 730.070312 407.296875 C 729.613281 406.199219 729.214844 405.082031 728.867188 403.941406 C 728.523438 402.804688 728.234375 401.652344 728.003906 400.484375 C 727.773438 399.320312 727.597656 398.144531 727.480469 396.960938 C 727.363281 395.777344 727.304688 394.59375 727.304688 393.402344 C 727.304688 392.214844 727.363281 391.027344 727.480469 389.84375 C 727.597656 388.660156 727.773438 387.484375 728.003906 386.320312 C 728.234375 385.152344 728.523438 384 728.867188 382.863281 C 729.214844 381.726562 729.613281 380.609375 730.070312 379.507812 C 730.523438 378.410156 731.03125 377.335938 731.589844 376.289062 C 732.152344 375.238281 732.761719 374.21875 733.421875 373.230469 C 734.082031 372.242188 734.789062 371.289062 735.542969 370.371094 C 736.300781 369.449219 737.097656 368.570312 737.9375 367.730469 C 738.777344 366.890625 739.65625 366.089844 740.574219 365.335938 C 741.496094 364.582031 742.449219 363.875 743.4375 363.214844 C 744.425781 362.554688 745.445312 361.945312 746.492188 361.382812 C 747.539062 360.824219 748.613281 360.316406 749.710938 359.859375 C 750.808594 359.40625 751.929688 359.003906 753.066406 358.660156 C 754.203125 358.3125 755.355469 358.027344 756.519531 357.792969 C 757.6875 357.5625 758.859375 357.386719 760.042969 357.269531 C 761.226562 357.152344 762.414062 357.097656 763.601562 357.097656 C 764.789062 357.097656 765.976562 357.152344 767.160156 357.269531 C 768.34375 357.386719 769.515625 357.5625 770.683594 357.792969 C 771.847656 358.027344 773 358.3125 774.136719 358.660156 C 775.273438 359.003906 776.394531 359.40625 777.492188 359.859375 C 778.589844 360.316406 779.664062 360.824219 780.710938 361.382812 C 781.757812 361.945312 782.777344 362.554688 783.765625 363.214844 C 784.753906 363.875 785.707031 364.582031 786.625 365.335938 C 787.546875 366.089844 788.425781 366.890625 789.265625 367.730469 C 790.105469 368.570312 790.902344 369.449219 791.65625 370.371094 C 792.414062 371.289062 793.121094 372.242188 793.78125 373.230469 C 794.441406 374.21875 795.050781 375.238281 795.609375 376.289062 C 796.171875 377.335938 796.679688 378.410156 797.132812 379.507812 C 797.589844 380.609375 797.988281 381.726562 798.332031 382.863281 C 798.679688 384 798.96875 385.152344 799.199219 386.320312 C 799.429688 387.484375 799.605469 388.660156 799.722656 389.84375 C 799.839844 391.027344 799.898438 392.214844 799.898438 393.402344 Z M 799.898438 393.402344 " fill-opacity="1" fill-rule="nonzero"/><g clip-path="url(#b7fbf208e6)"><path fill="#ffcc00" d="M 763.601562 322.085938 C 760.96875 322.085938 758.847656 324.628906 758.847656 327.789062 L 758.847656 340.152344 C 758.847656 343.3125 760.96875 345.859375 763.601562 345.859375 C 766.234375 345.859375 768.355469 343.3125 768.355469 340.152344 L 768.355469 327.789062 C 768.355469 324.628906 766.234375 322.085938 763.601562 322.085938 Z M 763.601562 322.085938 " fill-opacity="1" fill-rule="nonzero"/></g><path fill="#ffcc00" d="M 814.015625 342.972656 C 812.152344 341.109375 808.855469 341.410156 806.621094 343.644531 L 797.882812 352.386719 C 795.648438 354.621094 795.347656 357.921875 797.210938 359.785156 C 799.074219 361.644531 802.371094 361.347656 804.605469 359.109375 L 813.34375 350.371094 C 815.578125 348.132812 815.878906 344.835938 814.015625 342.972656 Z M 814.015625 342.972656 " fill-opacity="1" fill-rule="nonzero"/><path fill="#ffcc00" d="M 834.898438 393.402344 C 834.898438 390.769531 832.351562 388.648438 829.195312 388.648438 L 816.835938 388.648438 C 813.675781 388.648438 811.132812 390.769531 811.132812 393.402344 C 811.132812 396.039062 813.675781 398.160156 816.835938 398.160156 L 829.195312 398.160156 C 832.351562 398.160156 834.898438 396.039062 834.898438 393.402344 Z M 834.898438 393.402344 " fill-opacity="1" fill-rule="nonzero"/><path fill="#ffcc00" d="M 814.015625 443.835938 C 815.878906 441.972656 815.578125 438.671875 813.34375 436.4375 L 804.605469 427.695312 C 802.371094 425.460938 799.074219 425.160156 797.210938 427.023438 C 795.347656 428.886719 795.648438 432.1875 797.882812 434.421875 L 806.621094 443.160156 C 808.855469 445.398438 812.152344 445.695312 814.015625 443.835938 Z M 814.015625 443.835938 " fill-opacity="1" fill-rule="nonzero"/><path fill="#ffcc00" d="M 763.601562 464.722656 C 766.234375 464.722656 768.355469 462.179688 768.355469 459.019531 L 768.355469 446.65625 C 768.355469 443.496094 766.234375 440.949219 763.601562 440.949219 C 760.96875 440.949219 758.847656 443.496094 758.847656 446.65625 L 758.847656 459.019531 C 758.847656 462.179688 760.96875 464.722656 763.601562 464.722656 Z M 763.601562 464.722656 " fill-opacity="1" fill-rule="nonzero"/><path fill="#ffcc00" d="M 713.1875 443.835938 C 715.050781 445.695312 718.347656 445.398438 720.582031 443.160156 L 729.320312 434.421875 C 731.554688 432.1875 731.855469 428.886719 729.992188 427.023438 C 728.128906 425.160156 724.832031 425.460938 722.597656 427.695312 L 713.859375 436.4375 C 711.625 438.671875 711.324219 441.972656 713.1875 443.835938 Z M 713.1875 443.835938 " fill-opacity="1" fill-rule="nonzero"/><path fill="#ffcc00" d="M 692.304688 393.402344 C 692.304688 396.039062 694.847656 398.160156 698.007812 398.160156 L 710.367188 398.160156 C 713.527344 398.160156 716.070312 396.039062 716.070312 393.402344 C 716.070312 390.769531 713.527344 388.648438 710.367188 388.648438 L 698.007812 388.648438 C 694.847656 388.648438 692.304688 390.769531 692.304688 393.402344 Z M 692.304688 393.402344 " fill-opacity="1" fill-rule="nonzero"/><path fill="#ffcc00" d="M 713.1875 342.972656 C 711.324219 344.835938 711.625 348.132812 713.859375 350.371094 L 722.597656 359.109375 C 724.832031 361.347656 728.128906 361.644531 729.992188 359.785156 C 731.855469 357.921875 731.554688 354.621094 729.320312 352.386719 L 720.582031 343.644531 C 718.347656 341.410156 715.050781 341.109375 713.1875 342.972656 Z M 713.1875 342.972656 " fill-opacity="1" fill-rule="nonzero"/><g clip-path="url(#b4a720c33e)"><path fill="#c6e0f7" d="M 673.390625 379.390625 C 672.039062 379.390625 670.6875 379.457031 669.339844 379.589844 C 667.992188 379.722656 666.65625 379.921875 665.328125 380.1875 C 664 380.449219 662.6875 380.78125 661.390625 381.171875 C 660.097656 381.566406 658.824219 382.023438 657.574219 382.539062 C 656.324219 383.058594 655.101562 383.636719 653.90625 384.273438 C 652.710938 384.914062 651.550781 385.609375 650.425781 386.359375 C 649.300781 387.113281 648.214844 387.917969 647.167969 388.777344 C 646.121094 389.636719 645.121094 390.546875 644.164062 391.503906 C 643.207031 392.460938 642.296875 393.464844 641.4375 394.511719 C 640.578125 395.558594 639.773438 396.644531 639.023438 397.769531 C 638.269531 398.894531 637.574219 400.054688 636.9375 401.25 C 636.296875 402.445312 635.71875 403.667969 635.203125 404.917969 C 634.683594 406.167969 634.230469 407.441406 633.835938 408.738281 C 633.441406 410.035156 633.113281 411.347656 632.851562 412.675781 C 632.585938 414.003906 632.386719 415.339844 632.253906 416.6875 C 632.121094 418.035156 632.054688 419.386719 632.054688 420.742188 C 632.066406 422.273438 632.160156 423.796875 632.335938 425.320312 C 616.746094 428.117188 605.050781 440.714844 605.050781 455.921875 C 605.050781 473.199219 620.148438 487.109375 638.898438 487.109375 L 759.679688 487.109375 C 776.949219 487.109375 790.855469 474.179688 790.855469 458.121094 C 790.855469 442.160156 777.121094 429.300781 760 429.140625 C 759.863281 428.070312 759.679688 427.007812 759.449219 425.957031 C 759.21875 424.902344 758.9375 423.859375 758.613281 422.832031 C 758.289062 421.804688 757.917969 420.792969 757.5 419.800781 C 757.082031 418.804688 756.621094 417.832031 756.117188 416.878906 C 755.613281 415.925781 755.066406 414.996094 754.476562 414.09375 C 753.890625 413.1875 753.261719 412.3125 752.59375 411.46875 C 751.925781 410.621094 751.222656 409.804688 750.480469 409.023438 C 749.738281 408.238281 748.964844 407.492188 748.15625 406.777344 C 747.347656 406.066406 746.507812 405.390625 745.636719 404.753906 C 744.765625 404.113281 743.871094 403.519531 742.945312 402.960938 C 742.023438 402.40625 741.074219 401.894531 740.105469 401.421875 C 739.136719 400.953125 738.144531 400.527344 737.136719 400.144531 C 736.128906 399.761719 735.105469 399.429688 734.066406 399.140625 C 733.027344 398.851562 731.976562 398.609375 730.917969 398.417969 C 729.855469 398.222656 728.789062 398.078125 727.714844 397.980469 C 726.640625 397.882812 725.566406 397.835938 724.488281 397.832031 C 719.339844 397.839844 714.421875 398.910156 709.734375 401.042969 C 708.851562 399.410156 707.863281 397.847656 706.769531 396.351562 C 705.675781 394.855469 704.488281 393.4375 703.207031 392.101562 C 701.921875 390.765625 700.554688 389.519531 699.105469 388.367188 C 697.652344 387.214844 696.132812 386.164062 694.539062 385.214844 C 692.949219 384.265625 691.300781 383.429688 689.59375 382.703125 C 687.890625 381.976562 686.144531 381.367188 684.359375 380.875 C 682.574219 380.382812 680.761719 380.011719 678.925781 379.765625 C 677.089844 379.515625 675.246094 379.390625 673.390625 379.390625 Z M 673.390625 379.390625 " fill-opacity="1" fill-rule="nonzero"/></g></svg>