<svg xmlns="http://www.w3.org/2000/svg" xmlns:xlink="http://www.w3.org/1999/xlink" width="1920" zoomAndPan="magnify" viewBox="0 0 1440 809.999993" height="1080" preserveAspectRatio="xMidYMid meet" version="1.0"><defs><clipPath id="f75b84884e"><path d="M 649 343 L 835.050781 343 L 835.050781 451 L 649 451 Z M 649 343 " clip-rule="nonzero"/></clipPath><clipPath id="0a06044629"><path d="M 604.800781 359 L 791 359 L 791 466.75 L 604.800781 466.75 Z M 604.800781 359 " clip-rule="nonzero"/></clipPath></defs><g clip-path="url(#f75b84884e)"><path fill="#86a3bf" d="M 717.84375 343.519531 C 716.496094 343.519531 715.148438 343.585938 713.800781 343.71875 C 712.457031 343.851562 711.125 344.046875 709.796875 344.3125 C 708.472656 344.574219 707.164062 344.902344 705.871094 345.292969 C 704.578125 345.683594 703.308594 346.140625 702.0625 346.65625 C 700.8125 347.171875 699.59375 347.746094 698.402344 348.382812 C 697.210938 349.019531 696.054688 349.710938 694.929688 350.460938 C 693.808594 351.210938 692.722656 352.011719 691.679688 352.871094 C 690.636719 353.726562 689.636719 354.628906 688.679688 355.582031 C 687.726562 356.539062 686.820312 357.535156 685.960938 358.578125 C 685.105469 359.621094 684.300781 360.703125 683.550781 361.824219 C 682.800781 362.945312 682.105469 364.101562 681.46875 365.292969 C 680.832031 366.480469 680.257812 367.699219 679.738281 368.945312 C 679.222656 370.191406 678.769531 371.460938 678.375 372.75 C 677.984375 374.042969 677.65625 375.347656 677.394531 376.671875 C 677.128906 377.996094 676.929688 379.328125 676.800781 380.671875 C 676.667969 382.011719 676.601562 383.359375 676.601562 384.707031 C 676.609375 386.230469 676.703125 387.753906 676.882812 389.265625 C 661.324219 392.054688 649.65625 404.601562 649.65625 419.75 C 649.65625 436.960938 664.71875 450.816406 683.429688 450.816406 L 803.941406 450.816406 C 821.171875 450.816406 835.046875 437.9375 835.046875 421.941406 C 835.046875 406.042969 821.34375 393.234375 804.261719 393.074219 C 804.125 392.007812 803.941406 390.949219 803.710938 389.902344 C 803.480469 388.851562 803.203125 387.816406 802.878906 386.789062 C 802.554688 385.765625 802.183594 384.757812 801.765625 383.769531 C 801.351562 382.777344 800.890625 381.808594 800.386719 380.859375 C 799.882812 379.910156 799.339844 378.984375 798.75 378.085938 C 798.164062 377.183594 797.539062 376.3125 796.871094 375.46875 C 796.203125 374.625 795.5 373.8125 794.761719 373.035156 C 794.023438 372.253906 793.25 371.507812 792.441406 370.796875 C 791.636719 370.089844 790.796875 369.414062 789.929688 368.78125 C 789.0625 368.144531 788.167969 367.550781 787.246094 366.996094 C 786.324219 366.445312 785.378906 365.933594 784.410156 365.464844 C 783.441406 364.996094 782.457031 364.570312 781.449219 364.191406 C 780.441406 363.8125 779.421875 363.476562 778.386719 363.191406 C 777.347656 362.902344 776.300781 362.664062 775.242188 362.46875 C 774.183594 362.277344 773.121094 362.132812 772.046875 362.035156 C 770.976562 361.9375 769.902344 361.890625 768.828125 361.890625 C 763.691406 361.898438 758.78125 362.960938 754.105469 365.085938 C 753.226562 363.460938 752.238281 361.902344 751.148438 360.414062 C 750.058594 358.921875 748.871094 357.511719 747.59375 356.179688 C 746.3125 354.847656 744.949219 353.609375 743.5 352.460938 C 742.054688 351.3125 740.535156 350.265625 738.945312 349.320312 C 737.359375 348.375 735.714844 347.539062 734.011719 346.816406 C 732.3125 346.09375 730.570312 345.484375 728.789062 344.996094 C 727.003906 344.507812 725.199219 344.136719 723.367188 343.890625 C 721.535156 343.644531 719.695312 343.519531 717.84375 343.519531 Z M 717.84375 343.519531 " fill-opacity="1" fill-rule="nonzero"/></g><g clip-path="url(#0a06044629)"><path fill="#c6e0f7" d="M 673.007812 359.019531 C 671.65625 359.019531 670.308594 359.085938 668.964844 359.21875 C 667.621094 359.351562 666.285156 359.546875 664.960938 359.8125 C 663.636719 360.074219 662.324219 360.402344 661.035156 360.792969 C 659.742188 361.183594 658.46875 361.640625 657.222656 362.15625 C 655.972656 362.671875 654.753906 363.246094 653.5625 363.882812 C 652.371094 364.519531 651.214844 365.210938 650.09375 365.960938 C 648.96875 366.710938 647.886719 367.511719 646.839844 368.367188 C 645.796875 369.226562 644.796875 370.128906 643.839844 371.082031 C 642.886719 372.039062 641.980469 373.035156 641.125 374.078125 C 640.265625 375.121094 639.464844 376.203125 638.710938 377.324219 C 637.960938 378.445312 637.269531 379.601562 636.632812 380.792969 C 635.996094 381.980469 635.417969 383.199219 634.902344 384.445312 C 634.382812 385.691406 633.929688 386.960938 633.539062 388.25 C 633.144531 389.542969 632.816406 390.847656 632.554688 392.171875 C 632.289062 393.496094 632.09375 394.828125 631.960938 396.171875 C 631.828125 397.511719 631.761719 398.859375 631.761719 400.207031 C 631.769531 401.730469 631.863281 403.25 632.042969 404.765625 C 616.488281 407.554688 604.816406 420.101562 604.816406 435.25 C 604.816406 452.460938 619.878906 466.3125 638.589844 466.3125 L 759.101562 466.3125 C 776.335938 466.3125 790.207031 453.4375 790.207031 437.4375 C 790.207031 421.542969 776.503906 408.734375 759.421875 408.574219 C 759.285156 407.507812 759.105469 406.449219 758.871094 405.402344 C 758.640625 404.351562 758.363281 403.316406 758.039062 402.289062 C 757.714844 401.265625 757.34375 400.257812 756.929688 399.269531 C 756.511719 398.277344 756.050781 397.308594 755.550781 396.359375 C 755.046875 395.410156 754.5 394.484375 753.914062 393.585938 C 753.324219 392.683594 752.699219 391.8125 752.03125 390.96875 C 751.367188 390.125 750.664062 389.3125 749.921875 388.535156 C 749.183594 387.753906 748.410156 387.007812 747.601562 386.296875 C 746.796875 385.585938 745.957031 384.914062 745.089844 384.28125 C 744.222656 383.644531 743.328125 383.050781 742.40625 382.496094 C 741.484375 381.945312 740.539062 381.433594 739.570312 380.964844 C 738.605469 380.496094 737.617188 380.070312 736.609375 379.691406 C 735.605469 379.3125 734.582031 378.976562 733.546875 378.691406 C 732.511719 378.402344 731.460938 378.164062 730.402344 377.96875 C 729.347656 377.777344 728.28125 377.632812 727.210938 377.535156 C 726.136719 377.4375 725.066406 377.390625 723.988281 377.390625 C 718.851562 377.398438 713.945312 378.460938 709.265625 380.585938 C 708.386719 378.960938 707.402344 377.402344 706.308594 375.914062 C 705.21875 374.421875 704.035156 373.011719 702.753906 371.679688 C 701.472656 370.347656 700.109375 369.109375 698.660156 367.960938 C 697.214844 366.8125 695.695312 365.765625 694.109375 364.820312 C 692.519531 363.875 690.875 363.039062 689.175781 362.316406 C 687.472656 361.59375 685.730469 360.984375 683.949219 360.496094 C 682.167969 360.007812 680.359375 359.636719 678.527344 359.390625 C 676.695312 359.144531 674.855469 359.019531 673.007812 359.019531 Z M 673.007812 359.019531 " fill-opacity="1" fill-rule="nonzero"/></g></svg>