<svg xmlns="http://www.w3.org/2000/svg" xmlns:xlink="http://www.w3.org/1999/xlink" width="1920" zoomAndPan="magnify" viewBox="0 0 1440 809.999993" height="1080" preserveAspectRatio="xMidYMid meet" version="1.0"><defs><clipPath id="b2ab1cd5c0"><path d="M 619.671875 289.800781 L 820.671875 289.800781 L 820.671875 418 L 619.671875 418 Z M 619.671875 289.800781 " clip-rule="nonzero"/></clipPath><clipPath id="22ddf7d3e4"><path d="M 639 425 L 801 425 L 801 520.050781 L 639 520.050781 Z M 639 425 " clip-rule="nonzero"/></clipPath></defs><g clip-path="url(#b2ab1cd5c0)"><path fill="#05003d" d="M 820.21875 365.957031 C 820.214844 365.855469 820.207031 365.753906 820.199219 365.652344 L 820.1875 365.496094 C 820.171875 365.195312 820.148438 364.894531 820.121094 364.597656 C 820.105469 364.421875 820.085938 364.242188 820.0625 364.066406 C 820.035156 363.796875 820 363.523438 819.960938 363.253906 C 819.933594 363.070312 819.910156 362.886719 819.878906 362.707031 C 819.835938 362.441406 819.789062 362.179688 819.738281 361.917969 L 819.710938 361.769531 C 819.6875 361.640625 819.664062 361.511719 819.636719 361.378906 C 819.574219 361.097656 819.507812 360.8125 819.441406 360.53125 C 819.363281 360.226562 819.285156 359.917969 819.199219 359.617188 L 819.164062 359.472656 C 819.109375 359.292969 819.0625 359.105469 819.003906 358.925781 C 818.941406 358.71875 818.875 358.515625 818.808594 358.3125 L 818.730469 358.082031 C 818.691406 357.964844 818.652344 357.84375 818.609375 357.726562 C 818.515625 357.46875 818.421875 357.214844 818.324219 356.960938 C 818.273438 356.832031 818.222656 356.707031 818.171875 356.578125 C 818.0625 356.300781 817.945312 356.027344 817.828125 355.753906 L 817.726562 355.53125 C 814.207031 347.703125 807.472656 341.902344 799.234375 339.597656 C 796.421875 327.988281 788.695312 318.214844 778.011719 312.765625 L 777.820312 312.667969 C 777.394531 312.453125 776.964844 312.246094 776.53125 312.046875 L 776.140625 311.871094 C 775.738281 311.691406 775.335938 311.515625 774.925781 311.347656 C 774.824219 311.304688 774.71875 311.265625 774.613281 311.226562 L 774.429688 311.152344 C 774.039062 311 773.644531 310.84375 773.25 310.703125 C 773.144531 310.664062 773.035156 310.628906 772.929688 310.59375 L 772.710938 310.519531 C 772.078125 310.304688 771.425781 310.097656 770.777344 309.910156 L 770.585938 309.855469 C 770.335938 309.78125 770.089844 309.707031 769.835938 309.644531 C 769.640625 309.589844 769.445312 309.546875 769.246094 309.5 L 768.992188 309.4375 C 768.65625 309.359375 768.316406 309.277344 767.972656 309.203125 C 767.714844 309.148438 767.457031 309.101562 767.199219 309.050781 L 767.140625 309.039062 C 766.78125 308.972656 766.425781 308.90625 766.066406 308.847656 C 765.792969 308.804688 765.523438 308.761719 765.25 308.722656 C 764.871094 308.667969 764.488281 308.621094 764.105469 308.578125 L 763.984375 308.566406 C 763.765625 308.539062 763.550781 308.515625 763.332031 308.496094 C 762.902344 308.453125 762.472656 308.421875 762.042969 308.394531 L 761.800781 308.378906 C 761.664062 308.371094 761.527344 308.359375 761.386719 308.355469 C 760.6875 308.320312 760.050781 308.304688 759.417969 308.304688 C 758.902344 308.304688 758.363281 308.316406 757.710938 308.347656 C 757.445312 308.359375 757.179688 308.371094 756.914062 308.386719 L 756.664062 308.40625 C 754.28125 308.566406 751.921875 308.925781 749.648438 309.484375 C 741.566406 298.816406 729.363281 291.78125 716.136719 290.167969 L 715.894531 290.140625 C 715.523438 290.097656 715.148438 290.058594 714.773438 290.023438 L 714.355469 289.984375 C 714.03125 289.957031 713.710938 289.933594 713.382812 289.910156 L 712.90625 289.882812 C 712.585938 289.863281 712.261719 289.847656 711.9375 289.835938 L 711.484375 289.820312 C 711.035156 289.808594 710.585938 289.800781 710.113281 289.800781 L 710.058594 289.800781 C 709.457031 289.800781 708.863281 289.816406 708.265625 289.835938 L 707.867188 289.851562 C 707.277344 289.875 706.691406 289.910156 706.109375 289.957031 L 705.847656 289.980469 C 705.300781 290.027344 704.753906 290.082031 704.210938 290.144531 L 703.957031 290.175781 C 703.363281 290.25 702.769531 290.332031 702.183594 290.425781 L 701.925781 290.46875 C 700.707031 290.671875 699.480469 290.921875 698.28125 291.214844 L 698.167969 291.242188 C 682 295.226562 668.605469 307.472656 663.167969 323.21875 C 647.71875 324.242188 633.851562 332.855469 626.042969 346.289062 L 625.976562 346.402344 C 625.640625 346.984375 625.320312 347.566406 625.023438 348.132812 L 624.886719 348.40625 C 624.589844 348.980469 624.324219 349.515625 624.082031 350.042969 L 623.890625 350.460938 C 623.65625 350.976562 623.429688 351.492188 623.21875 352.015625 C 623.167969 352.136719 623.117188 352.261719 623.070312 352.382812 L 622.996094 352.574219 C 622.804688 353.0625 622.613281 353.550781 622.4375 354.050781 C 622.382812 354.199219 622.332031 354.351562 622.28125 354.507812 L 622.203125 354.738281 C 622.046875 355.203125 621.890625 355.667969 621.75 356.140625 C 621.695312 356.324219 621.640625 356.511719 621.589844 356.699219 L 621.5 357.023438 C 621.378906 357.441406 621.261719 357.859375 621.15625 358.28125 C 621.101562 358.492188 621.054688 358.703125 621.007812 358.917969 L 620.890625 359.417969 C 620.8125 359.769531 620.730469 360.121094 620.660156 360.472656 C 620.613281 360.710938 620.570312 360.953125 620.53125 361.195312 L 620.429688 361.777344 C 620.371094 362.089844 620.316406 362.398438 620.269531 362.710938 C 620.230469 362.976562 620.195312 363.25 620.164062 363.519531 L 620.085938 364.164062 C 620.050781 364.4375 620.011719 364.710938 619.984375 364.988281 C 619.957031 365.292969 619.933594 365.597656 619.914062 365.90625 L 619.832031 367.003906 C 619.824219 367.101562 619.816406 367.203125 619.8125 367.304688 C 619.808594 367.386719 619.808594 367.46875 619.804688 367.554688 L 619.800781 367.757812 C 619.769531 368.425781 619.757812 369.015625 619.753906 369.558594 L 619.753906 369.636719 L 619.757812 369.699219 C 619.757812 370.296875 619.773438 370.945312 619.804688 371.671875 L 619.808594 371.769531 C 619.816406 371.9375 619.824219 372.101562 619.832031 372.269531 C 619.867188 372.820312 619.90625 373.367188 619.957031 373.914062 C 619.996094 374.308594 620.039062 374.699219 620.082031 375.089844 L 620.105469 375.261719 C 621.394531 385.964844 626.433594 395.957031 634.289062 403.402344 L 634.449219 403.558594 C 634.542969 403.644531 634.632812 403.730469 634.722656 403.816406 C 634.941406 404.015625 635.160156 404.210938 635.378906 404.410156 C 635.726562 404.714844 636.074219 405.019531 636.429688 405.316406 L 636.753906 405.59375 C 637.195312 405.957031 637.671875 406.332031 638.253906 406.769531 C 638.375 406.863281 638.492188 406.953125 638.617188 407.042969 L 638.742188 407.140625 C 638.8125 407.191406 638.878906 407.242188 638.945312 407.292969 C 639.042969 407.359375 639.136719 407.425781 639.234375 407.492188 C 639.304688 407.539062 639.375 407.585938 639.445312 407.632812 C 639.878906 407.941406 640.320312 408.246094 640.765625 408.539062 L 641.035156 408.710938 C 645.953125 411.894531 651.335938 414.09375 657.023438 415.242188 C 670.375 418.425781 685.851562 417.78125 699.507812 417.214844 C 704.820312 416.992188 709.835938 416.785156 714.632812 416.78125 C 720.921875 416.785156 727.511719 417.066406 733.886719 417.339844 C 740.511719 417.621094 747.234375 417.910156 753.9375 417.910156 C 762.910156 417.910156 771.839844 417.394531 780.449219 415.660156 C 784.210938 415.105469 787.898438 414.085938 791.40625 412.632812 C 797.445312 410.308594 802.722656 406.707031 807.085938 401.929688 C 815.425781 393.289062 820.058594 381.917969 820.128906 369.941406 C 820.210938 369.015625 820.253906 368.160156 820.253906 367.28125 C 820.25 366.839844 820.238281 366.394531 820.21875 365.957031 Z M 710.078125 290.070312 Z M 620.023438 369.636719 Z M 620.023438 369.636719 " fill-opacity="1" fill-rule="nonzero"/></g><g clip-path="url(#22ddf7d3e4)"><path fill="#75c6d5" d="M 657.3125 439.886719 C 657.332031 440.148438 657.34375 440.398438 657.339844 440.632812 C 657.335938 442.902344 656.449219 445.015625 654.851562 446.605469 C 653.261719 448.183594 651.152344 449.054688 648.910156 449.054688 C 648.898438 449.054688 648.890625 449.054688 648.878906 449.054688 C 648.605469 449.054688 648.328125 449.039062 648.046875 449.011719 C 647.972656 449.003906 647.902344 448.992188 647.832031 448.980469 L 647.625 448.949219 C 647.496094 448.929688 647.367188 448.914062 647.242188 448.886719 C 647.136719 448.867188 647.03125 448.839844 646.925781 448.8125 L 646.71875 448.757812 C 646.636719 448.738281 646.554688 448.71875 646.476562 448.695312 C 646.304688 448.640625 646.140625 448.582031 645.976562 448.519531 L 645.886719 448.488281 C 645.839844 448.472656 645.796875 448.453125 645.75 448.4375 C 645.550781 448.355469 645.355469 448.265625 645.164062 448.167969 L 645.074219 448.125 C 642.226562 446.667969 640.464844 443.78125 640.476562 440.59375 C 640.488281 436.160156 644.171875 425.324219 648.949219 425.324219 C 648.953125 425.324219 648.957031 425.324219 648.960938 425.324219 C 651.222656 425.332031 653.035156 427.734375 654.160156 429.746094 C 655.449219 432.058594 656.527344 435.101562 657.046875 437.890625 C 657.113281 438.25 657.164062 438.558594 657.203125 438.855469 L 657.21875 438.964844 C 657.253906 439.246094 657.285156 439.523438 657.304688 439.785156 Z M 696.675781 457.332031 C 696.667969 457.21875 696.664062 457.101562 696.652344 456.984375 L 696.601562 456.441406 C 696.589844 456.335938 696.574219 456.226562 696.5625 456.117188 L 696.53125 455.878906 C 696.511719 455.753906 696.492188 455.621094 696.472656 455.492188 L 696.445312 455.316406 C 696.417969 455.164062 696.390625 455.007812 696.363281 454.851562 L 696.347656 454.769531 C 695.738281 451.515625 694.476562 447.964844 692.976562 445.277344 C 691.667969 442.9375 689.5625 440.148438 686.941406 440.140625 C 686.9375 440.140625 686.933594 440.140625 686.929688 440.140625 C 681.371094 440.140625 677.085938 452.777344 677.070312 457.945312 C 677.058594 461.65625 679.109375 465.015625 682.421875 466.710938 L 682.527344 466.761719 C 682.75 466.871094 682.976562 466.980469 683.207031 467.074219 C 683.261719 467.09375 683.320312 467.113281 683.375 467.132812 L 683.464844 467.167969 C 683.65625 467.238281 683.851562 467.3125 684.050781 467.371094 C 684.144531 467.398438 684.242188 467.421875 684.335938 467.445312 L 684.566406 467.503906 C 684.691406 467.539062 684.816406 467.570312 684.945312 467.597656 C 685.101562 467.628906 685.261719 467.652344 685.425781 467.671875 L 685.636719 467.707031 C 685.71875 467.71875 685.796875 467.730469 685.878906 467.738281 C 686.203125 467.773438 686.53125 467.789062 686.851562 467.792969 C 686.859375 467.792969 686.871094 467.792969 686.882812 467.792969 C 689.492188 467.792969 691.945312 466.78125 693.796875 464.941406 C 695.660156 463.09375 696.6875 460.632812 696.695312 458.011719 C 696.695312 457.851562 696.691406 457.683594 696.683594 457.511719 Z M 655.320312 477.675781 L 655.585938 477.625 L 655.582031 477.566406 C 655.5625 477.308594 655.535156 477.039062 655.492188 476.734375 L 655.484375 476.667969 C 655.445312 476.378906 655.398438 476.078125 655.332031 475.734375 C 654.832031 473.039062 653.789062 470.09375 652.542969 467.863281 C 651.457031 465.914062 649.699219 463.589844 647.511719 463.582031 C 647.507812 463.582031 647.503906 463.582031 647.5 463.582031 C 642.878906 463.582031 639.320312 474.058594 639.304688 478.34375 C 639.292969 481.425781 641 484.21875 643.75 485.628906 L 643.839844 485.671875 C 644.023438 485.761719 644.214844 485.851562 644.40625 485.929688 C 644.449219 485.945312 644.496094 485.964844 644.542969 485.980469 L 644.617188 486.007812 C 644.78125 486.066406 644.941406 486.128906 645.109375 486.175781 C 645.1875 486.203125 645.273438 486.222656 645.355469 486.242188 L 645.539062 486.289062 C 645.640625 486.316406 645.746094 486.34375 645.851562 486.363281 C 645.980469 486.390625 646.113281 486.410156 646.246094 486.429688 L 646.421875 486.453125 C 646.488281 486.464844 646.558594 486.476562 646.628906 486.484375 C 646.914062 486.511719 647.210938 486.527344 647.460938 486.527344 C 649.628906 486.527344 651.671875 485.6875 653.210938 484.15625 C 654.757812 482.621094 655.613281 480.578125 655.617188 478.382812 C 655.617188 478.15625 655.609375 477.910156 655.589844 477.65625 Z M 685.449219 511.324219 C 685.46875 511.578125 685.480469 511.824219 685.480469 512.050781 C 685.464844 516.550781 681.808594 520.195312 677.324219 520.195312 C 677.3125 520.195312 677.304688 520.195312 677.292969 520.195312 C 677.03125 520.191406 676.757812 520.179688 676.488281 520.152344 C 676.417969 520.144531 676.351562 520.132812 676.285156 520.121094 L 676.121094 520.097656 C 675.984375 520.078125 675.84375 520.058594 675.710938 520.03125 C 675.601562 520.011719 675.492188 519.980469 675.386719 519.953125 L 675.203125 519.90625 C 675.125 519.886719 675.046875 519.867188 674.96875 519.84375 C 674.800781 519.792969 674.640625 519.734375 674.480469 519.675781 L 674.414062 519.652344 C 674.363281 519.632812 674.316406 519.617188 674.265625 519.597656 C 674.074219 519.519531 673.886719 519.429688 673.699219 519.339844 L 673.613281 519.296875 C 670.859375 517.886719 669.15625 515.09375 669.164062 512.011719 C 669.179688 507.722656 672.738281 497.246094 677.363281 497.246094 C 677.363281 497.246094 677.367188 497.246094 677.371094 497.246094 C 679.5625 497.253906 681.316406 499.582031 682.40625 501.527344 C 683.648438 503.761719 684.695312 506.707031 685.195312 509.402344 C 685.257812 509.746094 685.304688 510.042969 685.347656 510.335938 L 685.359375 510.429688 C 685.394531 510.707031 685.425781 510.976562 685.445312 511.230469 L 685.445312 511.234375 Z M 673.820312 519.097656 Z M 727.023438 490.832031 C 727.039062 491.085938 727.050781 491.332031 727.050781 491.554688 C 727.035156 496.058594 723.378906 499.703125 718.894531 499.703125 C 718.882812 499.703125 718.875 499.703125 718.867188 499.703125 C 718.601562 499.699219 718.332031 499.6875 718.058594 499.660156 C 717.988281 499.652344 717.921875 499.640625 717.855469 499.628906 L 717.667969 499.601562 C 717.539062 499.582031 717.40625 499.566406 717.28125 499.539062 C 717.171875 499.519531 717.066406 499.488281 716.960938 499.460938 L 716.773438 499.414062 C 716.695312 499.394531 716.617188 499.375 716.539062 499.351562 C 716.371094 499.300781 716.210938 499.242188 716.050781 499.183594 L 715.980469 499.15625 C 715.933594 499.140625 715.882812 499.121094 715.835938 499.105469 C 715.644531 499.027344 715.457031 498.9375 715.269531 498.84375 L 715.183594 498.800781 C 712.429688 497.394531 710.726562 494.601562 710.734375 491.515625 C 710.75 487.230469 714.3125 476.753906 718.929688 476.753906 C 718.933594 476.753906 718.9375 476.753906 718.941406 476.753906 C 721.132812 476.761719 722.886719 479.085938 723.976562 481.035156 C 725.21875 483.269531 726.265625 486.210938 726.765625 488.910156 C 726.828125 489.253906 726.878906 489.550781 726.917969 489.839844 L 726.929688 489.941406 C 726.964844 490.214844 726.996094 490.484375 727.015625 490.738281 L 727.019531 490.796875 L 726.753906 490.851562 Z M 715.390625 498.605469 Z M 744.863281 465.617188 C 744.667969 465.539062 744.476562 465.449219 744.285156 465.351562 L 744.40625 465.113281 L 744.253906 465.335938 L 744.195312 465.308594 C 741.382812 463.867188 739.640625 461.015625 739.652344 457.863281 C 739.660156 455.480469 740.652344 451.699219 742.070312 448.664062 C 743.097656 446.464844 745.234375 442.777344 748.027344 442.777344 C 748.03125 442.777344 748.035156 442.777344 748.039062 442.777344 C 750.273438 442.78125 752.066406 445.160156 753.179688 447.148438 C 754.453125 449.433594 755.519531 452.441406 756.03125 455.199219 C 756.097656 455.550781 756.144531 455.855469 756.1875 456.152344 L 756.199219 456.25 C 756.238281 456.535156 756.265625 456.808594 756.285156 457.070312 L 756.289062 457.132812 C 756.3125 457.421875 756.320312 457.671875 756.320312 457.902344 C 756.308594 462.507812 752.570312 466.226562 747.988281 466.226562 C 747.976562 466.226562 747.96875 466.226562 747.957031 466.226562 C 747.691406 466.226562 747.410156 466.210938 747.132812 466.183594 C 747.0625 466.175781 746.996094 466.164062 746.929688 466.15625 L 746.75 466.128906 C 746.613281 466.109375 746.476562 466.089844 746.339844 466.0625 C 746.230469 466.039062 746.125 466.011719 746.019531 465.984375 L 745.824219 465.9375 C 745.742188 465.914062 745.660156 465.894531 745.582031 465.871094 C 745.410156 465.820312 745.246094 465.757812 745.082031 465.699219 L 745.003906 465.667969 C 744.953125 465.652344 744.910156 465.636719 744.863281 465.617188 Z M 756.015625 457.089844 Z M 800.238281 447.347656 C 800.222656 451.855469 796.566406 455.496094 792.082031 455.496094 C 792.074219 455.496094 792.066406 455.496094 792.054688 455.496094 C 791.792969 455.492188 791.519531 455.480469 791.25 455.453125 C 791.179688 455.445312 791.113281 455.433594 791.042969 455.421875 L 790.867188 455.394531 C 790.734375 455.378906 790.601562 455.359375 790.472656 455.332031 C 790.363281 455.3125 790.257812 455.285156 790.152344 455.253906 L 789.964844 455.207031 C 789.886719 455.1875 789.804688 455.167969 789.726562 455.144531 C 789.5625 455.09375 789.402344 455.035156 789.238281 454.976562 L 789.167969 454.949219 C 789.121094 454.933594 789.074219 454.917969 789.027344 454.898438 C 788.835938 454.820312 788.648438 454.730469 788.460938 454.636719 L 788.375 454.597656 C 785.621094 453.1875 783.914062 450.394531 783.925781 447.3125 C 783.941406 443.023438 787.5 432.546875 792.121094 432.546875 C 792.125 432.546875 792.128906 432.546875 792.132812 432.546875 C 794.320312 432.554688 796.078125 434.878906 797.164062 436.828125 C 798.410156 439.0625 799.453125 442.003906 799.953125 444.703125 C 800.019531 445.046875 800.066406 445.34375 800.105469 445.632812 L 800.117188 445.703125 C 800.15625 446.007812 800.183594 446.277344 800.203125 446.53125 L 800.207031 446.59375 C 800.230469 446.878906 800.238281 447.121094 800.238281 447.347656 Z M 799.96875 447.347656 Z M 799.9375 446.550781 Z M 756.882812 513.558594 C 756.894531 513.75 756.902344 513.929688 756.902344 514.097656 C 756.898438 515.742188 756.257812 517.273438 755.101562 518.421875 C 753.949219 519.566406 752.421875 520.195312 750.800781 520.195312 C 750.589844 520.199219 750.378906 520.183594 750.175781 520.160156 C 750.125 520.15625 750.078125 520.148438 750.027344 520.140625 L 749.894531 520.121094 C 749.792969 520.105469 749.691406 520.09375 749.59375 520.074219 C 749.511719 520.058594 749.433594 520.035156 749.355469 520.015625 L 749.230469 519.984375 C 749.164062 519.96875 749.101562 519.953125 749.039062 519.933594 C 748.914062 519.894531 748.796875 519.851562 748.675781 519.804688 L 748.515625 519.746094 C 748.371094 519.6875 748.230469 519.625 748.089844 519.554688 L 748.023438 519.523438 C 745.964844 518.46875 744.691406 516.378906 744.695312 514.070312 C 744.703125 512.335938 745.425781 509.589844 746.453125 507.386719 C 747.203125 505.777344 748.769531 503.082031 750.828125 503.082031 C 750.832031 503.082031 750.835938 503.082031 750.835938 503.082031 C 753.71875 503.09375 755.996094 508.378906 756.691406 512.128906 C 756.738281 512.382812 756.773438 512.605469 756.804688 512.820312 L 756.816406 512.894531 C 756.84375 513.101562 756.863281 513.300781 756.878906 513.488281 L 756.878906 513.492188 Z M 756.539062 512.859375 Z M 711.324219 448.171875 L 711.199219 448.414062 L 711.203125 448.414062 C 711.339844 448.484375 711.480469 448.550781 711.628906 448.609375 L 711.785156 448.664062 C 711.90625 448.710938 712.027344 448.753906 712.152344 448.792969 C 712.210938 448.808594 712.273438 448.824219 712.332031 448.839844 L 712.472656 448.875 C 712.550781 448.894531 712.628906 448.917969 712.707031 448.933594 C 712.808594 448.953125 712.917969 448.96875 713.0625 448.988281 L 713.140625 449 C 713.191406 449.007812 713.238281 449.015625 713.289062 449.019531 C 713.496094 449.042969 713.691406 449.050781 713.914062 449.054688 C 715.535156 449.054688 717.0625 448.425781 718.214844 447.28125 C 719.371094 446.132812 720.011719 444.601562 720.015625 442.960938 C 720.015625 442.792969 720.007812 442.609375 719.996094 442.417969 L 719.992188 442.351562 C 719.976562 442.160156 719.953125 441.960938 719.925781 441.753906 L 719.917969 441.683594 C 719.886719 441.464844 719.851562 441.242188 719.804688 440.988281 C 719.105469 437.238281 716.828125 431.953125 713.949219 431.941406 C 713.945312 431.941406 713.945312 431.941406 713.941406 431.941406 C 711.882812 431.941406 710.316406 434.636719 709.566406 436.246094 C 708.539062 438.449219 707.816406 441.195312 707.808594 442.929688 C 707.800781 445.238281 709.078125 447.328125 711.175781 448.402344 Z M 786.058594 485.527344 C 786.042969 485.300781 786.015625 485.0625 785.984375 484.816406 L 785.972656 484.730469 C 785.9375 484.472656 785.894531 484.207031 785.839844 483.90625 C 785.007812 479.433594 782.300781 473.136719 778.886719 473.125 C 778.882812 473.125 778.878906 473.125 778.875 473.125 C 774.769531 473.125 771.605469 482.417969 771.589844 486.21875 C 771.582031 488.960938 773.097656 491.441406 775.542969 492.691406 L 775.621094 492.730469 C 775.789062 492.8125 775.953125 492.890625 776.125 492.960938 L 776.339844 493.039062 C 776.476562 493.089844 776.609375 493.140625 776.75 493.179688 C 776.816406 493.203125 776.886719 493.21875 776.957031 493.238281 L 777.132812 493.28125 C 777.226562 493.304688 777.316406 493.328125 777.40625 493.347656 C 777.527344 493.371094 777.648438 493.390625 777.769531 493.40625 L 777.914062 493.425781 C 777.972656 493.4375 778.035156 493.445312 778.097656 493.453125 C 778.335938 493.476562 778.574219 493.492188 778.816406 493.492188 C 778.824219 493.492188 778.832031 493.492188 778.839844 493.492188 C 782.828125 493.492188 786.078125 490.253906 786.089844 486.253906 C 786.089844 486.050781 786.082031 485.835938 786.066406 485.609375 Z M 786.058594 485.527344 " fill-opacity="1" fill-rule="nonzero"/></g></svg>