<svg xmlns="http://www.w3.org/2000/svg" xmlns:xlink="http://www.w3.org/1999/xlink" width="1920" zoomAndPan="magnify" viewBox="0 0 1440 809.999993" height="1080" preserveAspectRatio="xMidYMid meet" version="1.0"><defs><clipPath id="190b0fab86"><path d="M 649 319 L 835.050781 319 L 835.050781 427 L 649 427 Z M 649 319 " clip-rule="nonzero"/></clipPath><clipPath id="42d920f48d"><path d="M 604.800781 334 L 791 334 L 791 443 L 604.800781 443 Z M 604.800781 334 " clip-rule="nonzero"/></clipPath></defs><g clip-path="url(#190b0fab86)"><path fill="#86a3bf" d="M 717.84375 319.421875 C 716.496094 319.421875 715.148438 319.488281 713.800781 319.621094 C 712.457031 319.753906 711.125 319.949219 709.796875 320.214844 C 708.472656 320.476562 707.164062 320.804688 705.871094 321.199219 C 704.578125 321.589844 703.308594 322.046875 702.0625 322.5625 C 700.8125 323.078125 699.59375 323.65625 698.402344 324.292969 C 697.210938 324.929688 696.054688 325.625 694.929688 326.375 C 693.808594 327.128906 692.722656 327.929688 691.679688 328.789062 C 690.636719 329.648438 689.636719 330.554688 688.679688 331.507812 C 687.726562 332.464844 686.820312 333.464844 685.960938 334.507812 C 685.105469 335.554688 684.300781 336.640625 683.550781 337.761719 C 682.800781 338.886719 682.105469 340.042969 681.46875 341.238281 C 680.832031 342.429688 680.257812 343.648438 679.738281 344.898438 C 679.222656 346.144531 678.769531 347.417969 678.375 348.710938 C 677.984375 350.003906 677.65625 351.3125 677.394531 352.640625 C 677.128906 353.964844 676.929688 355.300781 676.800781 356.644531 C 676.667969 357.992188 676.601562 359.339844 676.601562 360.691406 C 676.609375 362.21875 676.703125 363.742188 676.882812 365.257812 C 661.324219 368.054688 649.65625 380.625 649.65625 395.804688 C 649.65625 413.046875 664.71875 426.929688 683.429688 426.929688 L 803.941406 426.929688 C 821.171875 426.929688 835.046875 414.023438 835.046875 397.996094 C 835.046875 382.070312 821.34375 369.234375 804.261719 369.074219 C 804.125 368.003906 803.941406 366.945312 803.710938 365.894531 C 803.480469 364.84375 803.203125 363.804688 802.878906 362.777344 C 802.554688 361.753906 802.183594 360.742188 801.765625 359.75 C 801.351562 358.757812 800.890625 357.785156 800.386719 356.832031 C 799.882812 355.882812 799.339844 354.957031 798.75 354.054688 C 798.164062 353.152344 797.539062 352.277344 796.871094 351.433594 C 796.203125 350.589844 795.5 349.777344 794.761719 348.992188 C 794.023438 348.210938 793.25 347.464844 792.441406 346.753906 C 791.636719 346.042969 790.796875 345.367188 789.929688 344.730469 C 789.0625 344.097656 788.167969 343.5 787.246094 342.945312 C 786.324219 342.390625 785.378906 341.878906 784.410156 341.410156 C 783.441406 340.9375 782.457031 340.515625 781.449219 340.132812 C 780.441406 339.753906 779.421875 339.417969 778.386719 339.128906 C 777.347656 338.84375 776.300781 338.601562 775.242188 338.410156 C 774.183594 338.214844 773.121094 338.070312 772.046875 337.972656 C 770.976562 337.875 769.902344 337.828125 768.828125 337.828125 C 763.691406 337.835938 758.78125 338.902344 754.105469 341.027344 C 753.226562 339.402344 752.238281 337.84375 751.148438 336.347656 C 750.058594 334.855469 748.871094 333.441406 747.59375 332.105469 C 746.3125 330.773438 744.949219 329.527344 743.5 328.378906 C 742.054688 327.226562 740.535156 326.179688 738.945312 325.230469 C 737.359375 324.285156 735.714844 323.449219 734.011719 322.726562 C 732.3125 322 730.570312 321.390625 728.789062 320.902344 C 727.003906 320.410156 725.199219 320.039062 723.367188 319.792969 C 721.535156 319.542969 719.695312 319.421875 717.84375 319.421875 Z M 717.84375 319.421875 " fill-opacity="1" fill-rule="nonzero"/></g><g clip-path="url(#42d920f48d)"><path fill="#c6e0f7" d="M 673.007812 334.953125 C 671.65625 334.953125 670.308594 335.019531 668.964844 335.148438 C 667.621094 335.28125 666.285156 335.480469 664.960938 335.746094 C 663.636719 336.007812 662.324219 336.335938 661.035156 336.730469 C 659.742188 337.121094 658.46875 337.574219 657.222656 338.09375 C 655.972656 338.609375 654.753906 339.1875 653.5625 339.824219 C 652.371094 340.460938 651.214844 341.15625 650.09375 341.90625 C 648.96875 342.65625 647.886719 343.460938 646.839844 344.320312 C 645.796875 345.175781 644.796875 346.082031 643.839844 347.039062 C 642.886719 347.996094 641.980469 348.996094 641.125 350.039062 C 640.265625 351.085938 639.464844 352.167969 638.710938 353.292969 C 637.960938 354.417969 637.269531 355.574219 636.632812 356.765625 C 635.996094 357.960938 635.417969 359.179688 634.902344 360.429688 C 634.382812 361.675781 633.929688 362.949219 633.539062 364.242188 C 633.144531 365.535156 632.816406 366.84375 632.554688 368.171875 C 632.289062 369.496094 632.09375 370.832031 631.960938 372.175781 C 631.828125 373.519531 631.761719 374.871094 631.761719 376.222656 C 631.769531 377.75 631.863281 379.273438 632.042969 380.789062 C 616.488281 383.585938 604.816406 396.15625 604.816406 411.332031 C 604.816406 428.578125 619.878906 442.460938 638.589844 442.460938 L 759.101562 442.460938 C 776.335938 442.460938 790.207031 429.554688 790.207031 413.527344 C 790.207031 397.597656 776.503906 384.765625 759.421875 384.605469 C 759.285156 383.535156 759.105469 382.476562 758.871094 381.425781 C 758.640625 380.375 758.363281 379.335938 758.039062 378.308594 C 757.714844 377.28125 757.34375 376.273438 756.929688 375.28125 C 756.511719 374.289062 756.050781 373.316406 755.550781 372.363281 C 755.046875 371.414062 754.5 370.488281 753.914062 369.585938 C 753.324219 368.683594 752.699219 367.808594 752.03125 366.964844 C 751.367188 366.121094 750.664062 365.304688 749.921875 364.523438 C 749.183594 363.742188 748.410156 362.996094 747.601562 362.285156 C 746.796875 361.574219 745.957031 360.898438 745.089844 360.261719 C 744.222656 359.625 743.328125 359.03125 742.40625 358.476562 C 741.484375 357.921875 740.539062 357.410156 739.570312 356.9375 C 738.605469 356.46875 737.617188 356.042969 736.609375 355.664062 C 735.605469 355.285156 734.582031 354.949219 733.546875 354.660156 C 732.511719 354.375 731.460938 354.132812 730.402344 353.9375 C 729.347656 353.746094 728.28125 353.601562 727.210938 353.503906 C 726.136719 353.40625 725.066406 353.359375 723.988281 353.359375 C 718.851562 353.367188 713.945312 354.433594 709.265625 356.558594 C 708.386719 354.933594 707.402344 353.371094 706.308594 351.878906 C 705.21875 350.386719 704.035156 348.972656 702.753906 347.636719 C 701.472656 346.300781 700.109375 345.058594 698.660156 343.910156 C 697.214844 342.757812 695.695312 341.710938 694.109375 340.761719 C 692.519531 339.816406 690.875 338.980469 689.175781 338.253906 C 687.472656 337.53125 685.730469 336.921875 683.949219 336.429688 C 682.167969 335.941406 680.359375 335.570312 678.527344 335.324219 C 676.695312 335.074219 674.855469 334.953125 673.007812 334.953125 Z M 673.007812 334.953125 " fill-opacity="1" fill-rule="nonzero"/></g><path fill="#3981bf" d="M 653.097656 422.878906 C 649.964844 426.414062 641.484375 433.5 638.925781 443.144531 C 638.785156 443.679688 638.695312 444.222656 638.65625 444.777344 C 638.621094 445.332031 638.640625 445.882812 638.710938 446.433594 C 638.785156 446.984375 638.910156 447.523438 639.085938 448.046875 C 639.265625 448.574219 639.492188 449.074219 639.769531 449.558594 C 640.046875 450.039062 640.371094 450.484375 640.734375 450.902344 C 641.101562 451.320312 641.503906 451.699219 641.945312 452.035156 C 642.382812 452.375 642.851562 452.664062 643.351562 452.910156 C 643.847656 453.15625 644.363281 453.351562 644.902344 453.496094 C 645.4375 453.636719 645.980469 453.730469 646.535156 453.765625 C 647.085938 453.800781 647.640625 453.78125 648.1875 453.710938 C 648.738281 453.636719 649.277344 453.511719 649.800781 453.335938 C 650.328125 453.15625 650.828125 452.929688 651.308594 452.652344 C 651.789062 452.371094 652.238281 452.050781 652.65625 451.683594 C 653.074219 451.320312 653.449219 450.917969 653.789062 450.476562 C 654.125 450.035156 654.417969 449.566406 654.664062 449.070312 C 654.90625 448.570312 655.101562 448.054688 655.246094 447.519531 C 655.265625 447.449219 655.28125 447.378906 655.300781 447.308594 C 657.921875 437.175781 654.039062 427.476562 653.097656 422.878906 Z M 653.097656 422.878906 " fill-opacity="1" fill-rule="nonzero"/><path fill="#3981bf" d="M 691.714844 422.878906 C 688.582031 426.414062 680.101562 433.5 677.542969 443.144531 C 677.398438 443.679688 677.308594 444.222656 677.273438 444.777344 C 677.238281 445.332031 677.253906 445.882812 677.328125 446.433594 C 677.398438 446.984375 677.527344 447.523438 677.703125 448.046875 C 677.882812 448.574219 678.109375 449.074219 678.386719 449.558594 C 678.664062 450.039062 678.984375 450.484375 679.351562 450.902344 C 679.71875 451.320312 680.121094 451.699219 680.558594 452.035156 C 681 452.375 681.46875 452.664062 681.964844 452.910156 C 682.464844 453.15625 682.980469 453.351562 683.515625 453.496094 C 684.050781 453.636719 684.597656 453.730469 685.148438 453.765625 C 685.703125 453.800781 686.253906 453.78125 686.804688 453.710938 C 687.355469 453.636719 687.894531 453.511719 688.417969 453.335938 C 688.941406 453.15625 689.445312 452.929688 689.925781 452.652344 C 690.40625 452.375 690.855469 452.050781 691.273438 451.683594 C 691.691406 451.320312 692.066406 450.917969 692.40625 450.476562 C 692.742188 450.035156 693.035156 449.566406 693.277344 449.070312 C 693.523438 448.570312 693.71875 448.054688 693.863281 447.519531 C 693.882812 447.449219 693.898438 447.378906 693.914062 447.308594 C 696.539062 437.175781 692.65625 427.476562 691.714844 422.878906 Z M 691.714844 422.878906 " fill-opacity="1" fill-rule="nonzero"/><path fill="#3981bf" d="M 730.394531 423.910156 C 727.261719 427.445312 718.78125 434.53125 716.222656 444.175781 C 716.078125 444.710938 715.988281 445.257812 715.953125 445.808594 C 715.917969 446.363281 715.933594 446.914062 716.007812 447.464844 C 716.078125 448.015625 716.203125 448.554688 716.382812 449.078125 C 716.5625 449.605469 716.789062 450.109375 717.066406 450.589844 C 717.34375 451.070312 717.664062 451.519531 718.03125 451.9375 C 718.398438 452.351562 718.800781 452.730469 719.238281 453.066406 C 719.679688 453.40625 720.148438 453.699219 720.644531 453.941406 C 721.144531 454.1875 721.660156 454.382812 722.195312 454.527344 C 722.730469 454.671875 723.277344 454.761719 723.828125 454.796875 C 724.382812 454.832031 724.933594 454.816406 725.484375 454.742188 C 726.035156 454.671875 726.570312 454.542969 727.097656 454.367188 C 727.621094 454.1875 728.125 453.960938 728.605469 453.683594 C 729.085938 453.40625 729.535156 453.082031 729.953125 452.71875 C 730.367188 452.351562 730.746094 451.949219 731.082031 451.507812 C 731.421875 451.066406 731.714844 450.597656 731.957031 450.101562 C 732.203125 449.601562 732.398438 449.085938 732.542969 448.550781 C 732.558594 448.480469 732.578125 448.410156 732.59375 448.339844 C 735.21875 438.210938 731.335938 428.507812 730.394531 423.910156 Z M 730.394531 423.910156 " fill-opacity="1" fill-rule="nonzero"/><path fill="#3981bf" d="M 672.4375 458.066406 C 669.304688 461.601562 660.824219 468.6875 658.265625 478.332031 C 658.125 478.867188 658.035156 479.414062 657.996094 479.964844 C 657.960938 480.519531 657.980469 481.070312 658.050781 481.621094 C 658.125 482.171875 658.25 482.710938 658.425781 483.234375 C 658.605469 483.761719 658.832031 484.265625 659.109375 484.746094 C 659.386719 485.226562 659.710938 485.675781 660.074219 486.09375 C 660.441406 486.507812 660.84375 486.886719 661.285156 487.226562 C 661.722656 487.5625 662.191406 487.855469 662.691406 488.101562 C 663.1875 488.34375 663.703125 488.539062 664.238281 488.683594 C 664.777344 488.828125 665.320312 488.917969 665.875 488.953125 C 666.425781 488.988281 666.980469 488.972656 667.527344 488.898438 C 668.078125 488.828125 668.617188 488.699219 669.140625 488.523438 C 669.667969 488.34375 670.167969 488.117188 670.648438 487.839844 C 671.128906 487.5625 671.578125 487.238281 671.996094 486.875 C 672.414062 486.507812 672.789062 486.105469 673.128906 485.664062 C 673.464844 485.222656 673.757812 484.753906 674.003906 484.257812 C 674.246094 483.757812 674.441406 483.242188 674.585938 482.707031 C 674.605469 482.636719 674.621094 482.566406 674.640625 482.496094 C 677.261719 472.367188 673.378906 462.664062 672.4375 458.066406 Z M 672.4375 458.066406 " fill-opacity="1" fill-rule="nonzero"/><path fill="#3981bf" d="M 711.054688 458.066406 C 707.921875 461.601562 699.441406 468.6875 696.882812 478.332031 C 696.738281 478.867188 696.648438 479.414062 696.613281 479.964844 C 696.578125 480.519531 696.59375 481.070312 696.667969 481.621094 C 696.738281 482.171875 696.867188 482.710938 697.042969 483.234375 C 697.222656 483.761719 697.449219 484.265625 697.726562 484.746094 C 698.003906 485.226562 698.324219 485.675781 698.691406 486.09375 C 699.058594 486.507812 699.460938 486.886719 699.898438 487.226562 C 700.339844 487.5625 700.808594 487.855469 701.304688 488.101562 C 701.804688 488.34375 702.320312 488.539062 702.855469 488.683594 C 703.390625 488.828125 703.9375 488.917969 704.488281 488.953125 C 705.042969 488.988281 705.59375 488.972656 706.144531 488.898438 C 706.695312 488.828125 707.234375 488.699219 707.757812 488.523438 C 708.28125 488.34375 708.785156 488.117188 709.265625 487.839844 C 709.746094 487.5625 710.195312 487.238281 710.613281 486.875 C 711.027344 486.507812 711.40625 486.105469 711.746094 485.664062 C 712.082031 485.222656 712.375 484.753906 712.617188 484.257812 C 712.863281 483.757812 713.058594 483.242188 713.203125 482.707031 C 713.222656 482.636719 713.238281 482.566406 713.253906 482.496094 C 715.878906 472.367188 711.996094 462.664062 711.054688 458.066406 Z M 711.054688 458.066406 " fill-opacity="1" fill-rule="nonzero"/></svg>