<svg xmlns="http://www.w3.org/2000/svg" xmlns:xlink="http://www.w3.org/1999/xlink" width="1920" zoomAndPan="magnify" viewBox="0 0 1440 809.999993" height="1080" preserveAspectRatio="xMidYMid meet" version="1.0"><defs><clipPath id="39b4c24bae"><path d="M 604.800781 305 L 745 305 L 745 427 L 604.800781 427 Z M 604.800781 305 " clip-rule="nonzero"/></clipPath><clipPath id="50f8236708"><path d="M 728 413 L 835.050781 413 L 835.050781 505.671875 L 728 505.671875 Z M 728 413 " clip-rule="nonzero"/></clipPath></defs><g clip-path="url(#39b4c24bae)"><path fill="#68c1ee" d="M 739.304688 359.917969 C 739.300781 359.917969 739.289062 359.917969 739.285156 359.917969 L 732.542969 359.945312 C 734.101562 357.53125 735.429688 355.484375 735.703125 355.0625 C 737.132812 352.960938 736.921875 350.074219 735.0625 348.214844 C 732.960938 346.105469 729.554688 346.105469 727.457031 348.214844 C 727.078125 348.589844 727.019531 348.65625 719.683594 359.996094 L 684.785156 360.136719 L 704.640625 331.679688 L 719.148438 330.980469 C 722.113281 330.839844 724.398438 328.316406 724.257812 325.339844 C 724.117188 322.367188 721.660156 320.085938 718.628906 320.210938 L 712.4375 320.511719 L 714.984375 316.855469 C 716.683594 314.417969 716.089844 311.054688 713.65625 309.347656 C 711.226562 307.648438 707.871094 308.238281 706.164062 310.679688 L 703.542969 314.4375 C 702.476562 311.621094 701.558594 309.183594 701.367188 308.683594 C 700.539062 306.304688 698.113281 304.769531 695.53125 305.136719 C 692.597656 305.5625 690.554688 308.292969 690.96875 311.238281 C 691.050781 311.804688 691.066406 311.859375 696.085938 325.128906 L 673.671875 357.246094 L 648.089844 327.832031 L 650.914062 313.554688 C 651.484375 310.636719 649.59375 307.800781 646.679688 307.222656 C 643.769531 306.636719 640.9375 308.539062 640.359375 311.464844 L 639.152344 317.558594 L 636.230469 314.199219 C 634.28125 311.957031 630.882812 311.722656 628.640625 313.679688 C 626.40625 315.636719 626.167969 319.039062 628.125 321.285156 L 631.136719 324.746094 C 628.128906 325.105469 625.535156 325.417969 625.027344 325.476562 C 622.464844 325.726562 620.375 327.796875 620.183594 330.457031 C 619.972656 333.429688 622.203125 336.007812 625.167969 336.21875 C 625.230469 336.222656 625.28125 336.226562 625.363281 336.226562 C 625.890625 336.226562 627.503906 336.039062 639.683594 334.582031 L 661.996094 360.230469 L 628.25 360.367188 L 619.320312 348.886719 C 617.496094 346.539062 614.117188 346.121094 611.769531 347.949219 C 609.429688 349.78125 609.011719 353.171875 610.839844 355.515625 L 614.652344 360.421875 L 610.203125 360.4375 C 607.234375 360.449219 604.839844 362.875 604.851562 365.851562 C 604.863281 368.820312 607.269531 371.21875 610.226562 371.21875 C 610.234375 371.21875 610.242188 371.21875 610.25 371.21875 L 614.828125 371.203125 C 613.136719 373.710938 611.667969 375.886719 611.386719 376.308594 C 609.898438 378.414062 610.089844 381.347656 611.976562 383.234375 C 613.023438 384.285156 614.402344 384.8125 615.777344 384.8125 C 617.15625 384.8125 618.53125 384.285156 619.578125 383.234375 C 619.925781 382.886719 619.964844 382.84375 627.84375 371.148438 L 664.074219 371.003906 L 644 399.769531 L 628.835938 400.78125 C 625.875 400.976562 623.632812 403.542969 623.828125 406.515625 C 624.027344 409.484375 626.609375 411.738281 629.550781 411.539062 L 636.09375 411.105469 L 632.1875 416.703125 C 630.484375 419.140625 631.074219 422.503906 633.511719 424.210938 C 634.449219 424.867188 635.523438 425.183594 636.589844 425.183594 C 638.285156 425.183594 639.953125 424.382812 641 422.878906 L 644.863281 417.34375 C 645.925781 420 646.828125 422.253906 647.019531 422.738281 C 647.792969 424.832031 649.800781 426.25 652.054688 426.25 C 652.304688 426.25 652.5625 426.234375 652.824219 426.199219 C 655.761719 425.777344 657.804688 423.042969 657.386719 420.097656 C 657.300781 419.496094 657.277344 419.40625 652.234375 406.785156 L 674.605469 374.726562 L 699.398438 403.238281 L 696.726562 418.230469 C 696.203125 421.160156 698.152344 423.960938 701.070312 424.484375 C 701.394531 424.542969 701.710938 424.574219 702.027344 424.574219 C 704.582031 424.574219 706.847656 422.738281 707.3125 420.128906 L 708.46875 413.660156 L 712.945312 418.8125 C 714.011719 420.035156 715.503906 420.660156 717.007812 420.660156 C 718.257812 420.660156 719.519531 420.222656 720.535156 419.332031 C 722.773438 417.375 723.007812 413.972656 721.058594 411.726562 L 716.625 406.628906 C 719.464844 406.234375 721.878906 405.902344 722.378906 405.835938 C 724.902344 405.546875 726.941406 403.492188 727.125 400.859375 C 727.339844 397.890625 725.109375 395.308594 722.148438 395.097656 C 721.617188 395.0625 721.523438 395.066406 708.175781 396.917969 L 685.5625 370.917969 L 718.714844 370.78125 L 728.277344 382.617188 C 729.335938 383.933594 730.894531 384.617188 732.460938 384.617188 C 733.648438 384.617188 734.84375 384.226562 735.84375 383.417969 C 738.152344 381.542969 738.507812 378.148438 736.636719 375.832031 L 732.511719 370.726562 L 739.324219 370.703125 C 742.296875 370.6875 744.699219 368.265625 744.683594 365.289062 C 744.671875 362.320312 742.269531 359.917969 739.304688 359.917969 " fill-opacity="1" fill-rule="nonzero"/></g><g clip-path="url(#50f8236708)"><path fill="#8dd2f4" d="M 830.980469 454.933594 C 830.976562 454.933594 830.96875 454.933594 830.964844 454.933594 L 825.8125 454.953125 C 827.007812 453.109375 828.019531 451.542969 828.230469 451.222656 C 829.320312 449.617188 829.160156 447.410156 827.738281 445.988281 C 826.132812 444.378906 823.53125 444.378906 821.929688 445.988281 C 821.640625 446.277344 821.597656 446.328125 815.992188 454.992188 L 789.324219 455.101562 L 804.496094 433.355469 L 815.578125 432.820312 C 817.84375 432.714844 819.589844 430.785156 819.480469 428.511719 C 819.378906 426.238281 817.5 424.496094 815.183594 424.59375 L 810.445312 424.820312 L 812.398438 422.03125 C 813.695312 420.164062 813.246094 417.597656 811.382812 416.292969 C 809.527344 414.992188 806.964844 415.445312 805.664062 417.308594 L 803.65625 420.183594 C 802.839844 418.03125 802.136719 416.164062 801.992188 415.785156 C 801.355469 413.96875 799.503906 412.792969 797.535156 413.078125 C 795.285156 413.398438 793.726562 415.488281 794.050781 417.738281 C 794.113281 418.171875 794.121094 418.210938 797.957031 428.351562 L 780.832031 452.890625 L 761.28125 430.414062 L 763.4375 419.507812 C 763.878906 417.277344 762.433594 415.109375 760.207031 414.667969 C 757.984375 414.21875 755.816406 415.675781 755.378906 417.90625 L 754.457031 422.566406 L 752.222656 420 C 750.734375 418.28125 748.132812 418.105469 746.425781 419.601562 C 744.714844 421.097656 744.535156 423.695312 746.027344 425.414062 L 748.324219 428.054688 C 746.03125 428.332031 744.042969 428.570312 743.660156 428.617188 C 741.699219 428.804688 740.105469 430.386719 739.964844 432.421875 C 739.800781 434.691406 741.503906 436.664062 743.769531 436.824219 C 743.816406 436.828125 743.855469 436.832031 743.917969 436.832031 C 744.320312 436.832031 745.550781 436.6875 754.859375 435.570312 L 771.90625 455.171875 L 746.128906 455.273438 L 739.304688 446.503906 C 737.90625 444.710938 735.324219 444.390625 733.535156 445.785156 C 731.742188 447.1875 731.425781 449.777344 732.820312 451.570312 L 735.734375 455.316406 L 732.335938 455.328125 C 730.066406 455.339844 728.234375 457.191406 728.246094 459.464844 C 728.25 461.734375 730.089844 463.566406 732.355469 463.566406 C 732.359375 463.566406 732.367188 463.566406 732.371094 463.566406 L 735.871094 463.554688 C 734.574219 465.472656 733.457031 467.132812 733.234375 467.457031 C 732.101562 469.066406 732.25 471.304688 733.6875 472.75 C 734.488281 473.554688 735.542969 473.953125 736.59375 473.953125 C 737.644531 473.953125 738.695312 473.554688 739.5 472.75 C 739.765625 472.480469 739.792969 472.449219 745.8125 463.515625 L 773.496094 463.402344 L 758.160156 485.382812 L 746.574219 486.152344 C 744.308594 486.304688 742.59375 488.269531 742.746094 490.535156 C 742.894531 492.808594 744.871094 494.527344 747.117188 494.375 L 752.121094 494.042969 L 749.132812 498.320312 C 747.832031 500.183594 748.285156 502.753906 750.144531 504.058594 C 750.863281 504.5625 751.679688 504.800781 752.5 504.800781 C 753.789062 504.800781 755.070312 504.1875 755.867188 503.042969 L 758.820312 498.8125 C 759.628906 500.839844 760.320312 502.5625 760.46875 502.933594 C 761.058594 504.53125 762.59375 505.617188 764.3125 505.617188 C 764.507812 505.617188 764.703125 505.605469 764.898438 505.574219 C 767.144531 505.253906 768.707031 503.167969 768.386719 500.917969 C 768.320312 500.457031 768.304688 500.386719 764.449219 490.742188 L 781.542969 466.25 L 800.492188 488.03125 L 798.445312 499.488281 C 798.046875 501.726562 799.53125 503.867188 801.769531 504.269531 C 802.011719 504.3125 802.253906 504.332031 802.496094 504.332031 C 804.449219 504.332031 806.179688 502.933594 806.535156 500.9375 L 807.417969 495.996094 L 810.84375 499.933594 C 811.652344 500.867188 812.796875 501.347656 813.9375 501.347656 C 814.898438 501.347656 815.859375 501.011719 816.644531 500.328125 C 818.351562 498.835938 818.527344 496.230469 817.035156 494.519531 L 813.648438 490.625 C 815.820312 490.324219 817.667969 490.070312 818.046875 490.015625 C 819.972656 489.796875 821.53125 488.230469 821.675781 486.21875 C 821.835938 483.949219 820.136719 481.976562 817.871094 481.816406 C 817.46875 481.785156 817.394531 481.789062 807.195312 483.203125 L 789.917969 463.335938 L 815.25 463.234375 L 822.554688 472.277344 C 823.367188 473.28125 824.554688 473.804688 825.753906 473.804688 C 826.660156 473.804688 827.574219 473.503906 828.335938 472.890625 C 830.097656 471.457031 830.367188 468.863281 828.941406 467.09375 L 825.792969 463.191406 L 831 463.171875 C 833.269531 463.164062 835.101562 461.308594 835.089844 459.035156 C 835.085938 456.765625 833.242188 454.933594 830.980469 454.933594 " fill-opacity="1" fill-rule="nonzero"/></g><path fill="#2f93d3" d="M 822.691406 358.265625 C 822.6875 358.265625 822.683594 358.265625 822.683594 358.265625 L 819.800781 358.28125 C 820.46875 357.25 821.035156 356.378906 821.152344 356.195312 C 821.761719 355.300781 821.671875 354.066406 820.878906 353.273438 C 819.980469 352.375 818.527344 352.375 817.632812 353.273438 C 817.472656 353.433594 817.445312 353.460938 814.3125 358.300781 L 799.417969 358.363281 L 807.894531 346.214844 L 814.082031 345.917969 C 815.347656 345.859375 816.324219 344.78125 816.269531 343.511719 C 816.207031 342.242188 815.160156 341.265625 813.863281 341.324219 L 811.222656 341.449219 L 812.308594 339.886719 C 813.03125 338.847656 812.78125 337.410156 811.746094 336.683594 C 810.707031 335.960938 809.273438 336.207031 808.542969 337.253906 L 807.425781 338.859375 C 806.96875 337.65625 806.578125 336.613281 806.5 336.402344 C 806.140625 335.386719 805.105469 334.730469 804.007812 334.890625 C 802.75 335.070312 801.878906 336.234375 802.058594 337.492188 C 802.09375 337.730469 802.097656 337.757812 804.242188 343.417969 L 794.675781 357.128906 L 783.757812 344.574219 L 784.957031 338.480469 C 785.207031 337.234375 784.398438 336.023438 783.15625 335.777344 C 781.917969 335.527344 780.703125 336.339844 780.460938 337.585938 L 779.945312 340.191406 L 778.699219 338.753906 C 777.863281 337.796875 776.414062 337.699219 775.457031 338.535156 C 774.5 339.367188 774.398438 340.820312 775.234375 341.78125 L 776.523438 343.253906 C 775.238281 343.410156 774.128906 343.542969 773.910156 343.566406 C 772.820312 343.671875 771.929688 344.558594 771.847656 345.695312 C 771.757812 346.960938 772.707031 348.0625 773.976562 348.15625 C 774 348.15625 774.023438 348.15625 774.054688 348.15625 C 774.285156 348.15625 774.96875 348.078125 780.167969 347.453125 L 789.691406 358.402344 L 775.289062 358.460938 L 771.480469 353.5625 C 770.695312 352.558594 769.257812 352.378906 768.257812 353.160156 C 767.253906 353.945312 767.074219 355.386719 767.855469 356.390625 L 769.488281 358.484375 L 767.589844 358.488281 C 766.316406 358.496094 765.296875 359.53125 765.304688 360.800781 C 765.304688 362.070312 766.335938 363.09375 767.59375 363.09375 C 767.597656 363.09375 767.601562 363.09375 767.605469 363.09375 L 769.5625 363.085938 C 768.835938 364.15625 768.210938 365.085938 768.089844 365.261719 C 767.457031 366.164062 767.539062 367.417969 768.34375 368.222656 C 768.789062 368.667969 769.378906 368.894531 769.96875 368.894531 C 770.554688 368.894531 771.144531 368.667969 771.589844 368.222656 C 771.738281 368.070312 771.753906 368.054688 775.117188 363.0625 L 790.582031 363 L 782.011719 375.277344 L 775.539062 375.710938 C 774.277344 375.792969 773.320312 376.890625 773.402344 378.160156 C 773.488281 379.425781 774.589844 380.386719 775.84375 380.300781 L 778.636719 380.113281 L 776.96875 382.507812 C 776.242188 383.546875 776.496094 384.984375 777.535156 385.710938 C 777.933594 385.992188 778.394531 386.125 778.847656 386.125 C 779.570312 386.125 780.285156 385.78125 780.730469 385.140625 L 782.378906 382.78125 C 782.832031 383.914062 783.222656 384.875 783.300781 385.082031 C 783.632812 385.976562 784.488281 386.578125 785.449219 386.578125 C 785.554688 386.578125 785.667969 386.574219 785.78125 386.558594 C 787.03125 386.378906 787.90625 385.210938 787.722656 383.957031 C 787.6875 383.699219 787.679688 383.660156 785.523438 378.269531 L 795.070312 364.589844 L 805.65625 376.757812 L 804.515625 383.15625 C 804.292969 384.40625 805.121094 385.601562 806.367188 385.828125 C 806.507812 385.851562 806.640625 385.863281 806.777344 385.863281 C 807.867188 385.863281 808.835938 385.082031 809.035156 383.964844 L 809.527344 381.207031 L 811.441406 383.402344 C 811.894531 383.925781 812.53125 384.195312 813.167969 384.195312 C 813.703125 384.195312 814.242188 384.007812 814.679688 383.628906 C 815.636719 382.792969 815.730469 381.339844 814.898438 380.382812 L 813.007812 378.203125 C 814.222656 378.039062 815.25 377.894531 815.464844 377.867188 C 816.542969 377.742188 817.410156 376.867188 817.488281 375.746094 C 817.582031 374.476562 816.628906 373.375 815.367188 373.285156 C 815.136719 373.269531 815.097656 373.269531 809.398438 374.0625 L 799.75 362.964844 L 813.902344 362.90625 L 817.980469 367.957031 C 818.4375 368.515625 819.097656 368.808594 819.765625 368.808594 C 820.277344 368.808594 820.785156 368.644531 821.210938 368.300781 C 822.195312 367.496094 822.347656 366.050781 821.550781 365.0625 L 819.792969 362.882812 L 822.695312 362.871094 C 823.96875 362.863281 824.992188 361.832031 824.984375 360.5625 C 824.980469 359.292969 823.953125 358.265625 822.691406 358.265625 " fill-opacity="1" fill-rule="nonzero"/></svg>