<svg xmlns="http://www.w3.org/2000/svg" xmlns:xlink="http://www.w3.org/1999/xlink" width="1920" zoomAndPan="magnify" viewBox="0 0 1440 809.999993" height="1080" preserveAspectRatio="xMidYMid meet" version="1.0"><defs><clipPath id="59a4f096b7"><path d="M 770 399 L 796.363281 399 L 796.363281 410 L 770 410 Z M 770 399 " clip-rule="nonzero"/></clipPath><clipPath id="b0a15c171a"><path d="M 714 455 L 726 455 L 726 480.988281 L 714 480.988281 Z M 714 455 " clip-rule="nonzero"/></clipPath><clipPath id="f5764f817a"><path d="M 643.363281 399 L 669 399 L 669 410 L 643.363281 410 Z M 643.363281 399 " clip-rule="nonzero"/></clipPath></defs><path fill="#ffcc00" d="M 758.851562 404.535156 C 758.851562 405.808594 758.789062 407.082031 758.664062 408.351562 C 758.539062 409.621094 758.351562 410.878906 758.105469 412.132812 C 757.855469 413.382812 757.546875 414.617188 757.175781 415.839844 C 756.804688 417.058594 756.375 418.257812 755.886719 419.4375 C 755.398438 420.613281 754.855469 421.765625 754.253906 422.890625 C 753.652344 424.015625 753 425.109375 752.289062 426.167969 C 751.582031 427.230469 750.820312 428.253906 750.011719 429.238281 C 749.203125 430.226562 748.347656 431.167969 747.445312 432.070312 C 746.542969 432.972656 745.601562 433.828125 744.613281 434.636719 C 743.628906 435.445312 742.605469 436.203125 741.546875 436.914062 C 740.484375 437.621094 739.390625 438.277344 738.269531 438.878906 C 737.144531 439.480469 735.992188 440.023438 734.8125 440.511719 C 733.632812 441 732.433594 441.429688 731.214844 441.800781 C 729.996094 442.167969 728.757812 442.480469 727.507812 442.726562 C 726.257812 442.976562 724.996094 443.164062 723.726562 443.289062 C 722.457031 443.414062 721.1875 443.476562 719.910156 443.476562 C 718.636719 443.476562 717.363281 443.414062 716.09375 443.289062 C 714.824219 443.164062 713.5625 442.976562 712.3125 442.726562 C 711.0625 442.480469 709.828125 442.167969 708.605469 441.800781 C 707.386719 441.429688 706.1875 441 705.007812 440.511719 C 703.828125 440.023438 702.679688 439.480469 701.554688 438.878906 C 700.429688 438.277344 699.335938 437.621094 698.277344 436.914062 C 697.214844 436.203125 696.191406 435.445312 695.207031 434.636719 C 694.21875 433.828125 693.277344 432.972656 692.375 432.070312 C 691.472656 431.167969 690.617188 430.226562 689.808594 429.238281 C 689 428.253906 688.238281 427.230469 687.53125 426.167969 C 686.824219 425.109375 686.167969 424.015625 685.566406 422.890625 C 684.964844 421.765625 684.421875 420.613281 683.933594 419.4375 C 683.445312 418.257812 683.015625 417.058594 682.644531 415.839844 C 682.273438 414.617188 681.964844 413.382812 681.714844 412.132812 C 681.46875 410.878906 681.28125 409.621094 681.15625 408.351562 C 681.03125 407.082031 680.96875 405.808594 680.96875 404.535156 C 680.96875 403.257812 681.03125 401.988281 681.15625 400.71875 C 681.28125 399.449219 681.46875 398.1875 681.714844 396.9375 C 681.964844 395.6875 682.273438 394.449219 682.644531 393.230469 C 683.015625 392.007812 683.445312 390.808594 683.933594 389.632812 C 684.421875 388.453125 684.964844 387.300781 685.566406 386.175781 C 686.167969 385.050781 686.824219 383.960938 687.53125 382.898438 C 688.238281 381.839844 689 380.816406 689.808594 379.828125 C 690.617188 378.84375 691.472656 377.898438 692.375 377 C 693.277344 376.097656 694.21875 375.242188 695.207031 374.433594 C 696.191406 373.621094 697.214844 372.863281 698.277344 372.15625 C 699.335938 371.445312 700.429688 370.792969 701.554688 370.191406 C 702.679688 369.589844 703.828125 369.042969 705.007812 368.554688 C 706.1875 368.070312 707.386719 367.640625 708.605469 367.269531 C 709.828125 366.898438 711.0625 366.589844 712.3125 366.339844 C 713.5625 366.089844 714.824219 365.90625 716.09375 365.78125 C 717.363281 365.65625 718.636719 365.59375 719.910156 365.59375 C 721.1875 365.59375 722.457031 365.65625 723.726562 365.78125 C 724.996094 365.90625 726.257812 366.089844 727.507812 366.339844 C 728.757812 366.589844 729.996094 366.898438 731.214844 367.269531 C 732.433594 367.640625 733.632812 368.070312 734.8125 368.554688 C 735.992188 369.042969 737.144531 369.589844 738.269531 370.191406 C 739.390625 370.792969 740.484375 371.445312 741.546875 372.15625 C 742.605469 372.863281 743.628906 373.621094 744.613281 374.433594 C 745.601562 375.242188 746.542969 376.097656 747.445312 377 C 748.347656 377.898438 749.203125 378.84375 750.011719 379.828125 C 750.820312 380.816406 751.582031 381.839844 752.289062 382.898438 C 753 383.960938 753.652344 385.050781 754.253906 386.175781 C 754.855469 387.300781 755.398438 388.453125 755.886719 389.632812 C 756.375 390.808594 756.804688 392.007812 757.175781 393.230469 C 757.546875 394.449219 757.855469 395.6875 758.105469 396.9375 C 758.351562 398.1875 758.539062 399.449219 758.664062 400.71875 C 758.789062 401.988281 758.851562 403.257812 758.851562 404.535156 Z M 758.851562 404.535156 " fill-opacity="1" fill-rule="nonzero"/><path fill="#ffcc00" d="M 719.910156 328.039062 C 717.085938 328.039062 714.808594 330.769531 714.808594 334.160156 L 714.808594 347.417969 C 714.808594 350.808594 717.085938 353.539062 719.910156 353.539062 C 722.734375 353.539062 725.011719 350.808594 725.011719 347.417969 L 725.011719 334.160156 C 725.011719 330.769531 722.734375 328.039062 719.910156 328.039062 Z M 719.910156 328.039062 " fill-opacity="1" fill-rule="nonzero"/><path fill="#ffcc00" d="M 774 350.445312 C 772.003906 348.445312 768.464844 348.769531 766.066406 351.164062 L 756.691406 360.542969 C 754.292969 362.9375 753.972656 366.476562 755.96875 368.476562 C 757.96875 370.472656 761.507812 370.152344 763.902344 367.753906 L 773.277344 358.378906 C 775.675781 355.980469 776 352.441406 774 350.445312 Z M 774 350.445312 " fill-opacity="1" fill-rule="nonzero"/><g clip-path="url(#59a4f096b7)"><path fill="#ffcc00" d="M 796.40625 404.535156 C 796.40625 401.710938 793.675781 399.433594 790.285156 399.433594 L 777.027344 399.433594 C 773.636719 399.433594 770.90625 401.710938 770.90625 404.535156 C 770.90625 407.359375 773.636719 409.636719 777.027344 409.636719 L 790.285156 409.636719 C 793.675781 409.636719 796.40625 407.359375 796.40625 404.535156 Z M 796.40625 404.535156 " fill-opacity="1" fill-rule="nonzero"/></g><path fill="#ffcc00" d="M 774 458.625 C 776 456.628906 775.675781 453.089844 773.277344 450.691406 L 763.902344 441.316406 C 761.507812 438.917969 757.96875 438.597656 755.96875 440.59375 C 753.972656 442.59375 754.292969 446.132812 756.691406 448.527344 L 766.066406 457.902344 C 768.464844 460.300781 772.003906 460.625 774 458.625 Z M 774 458.625 " fill-opacity="1" fill-rule="nonzero"/><g clip-path="url(#b0a15c171a)"><path fill="#ffcc00" d="M 719.910156 481.03125 C 722.734375 481.03125 725.007812 478.300781 725.007812 474.910156 L 725.007812 461.652344 C 725.007812 458.261719 722.734375 455.53125 719.910156 455.53125 C 717.085938 455.53125 714.808594 458.261719 714.808594 461.652344 L 714.808594 474.910156 C 714.808594 478.300781 717.085938 481.03125 719.910156 481.03125 Z M 719.910156 481.03125 " fill-opacity="1" fill-rule="nonzero"/></g><path fill="#ffcc00" d="M 665.820312 458.625 C 667.816406 460.625 671.355469 460.300781 673.753906 457.902344 L 683.128906 448.527344 C 685.527344 446.132812 685.847656 442.59375 683.851562 440.59375 C 681.851562 438.597656 678.3125 438.917969 675.917969 441.316406 L 666.539062 450.691406 C 664.144531 453.089844 663.820312 456.628906 665.820312 458.625 Z M 665.820312 458.625 " fill-opacity="1" fill-rule="nonzero"/><g clip-path="url(#f5764f817a)"><path fill="#ffcc00" d="M 643.414062 404.535156 C 643.414062 407.359375 646.144531 409.636719 649.535156 409.636719 L 662.792969 409.636719 C 666.183594 409.636719 668.914062 407.359375 668.914062 404.535156 C 668.914062 401.710938 666.183594 399.433594 662.792969 399.433594 L 649.535156 399.433594 C 646.144531 399.433594 643.414062 401.710938 643.414062 404.535156 Z M 643.414062 404.535156 " fill-opacity="1" fill-rule="nonzero"/></g><path fill="#ffcc00" d="M 665.820312 350.445312 C 663.820312 352.441406 664.144531 355.980469 666.539062 358.378906 L 675.917969 367.753906 C 678.3125 370.152344 681.851562 370.472656 683.851562 368.476562 C 685.847656 366.476562 685.527344 362.9375 683.128906 360.542969 L 673.753906 351.164062 C 671.355469 348.769531 667.816406 348.445312 665.820312 350.445312 Z M 665.820312 350.445312 " fill-opacity="1" fill-rule="nonzero"/></svg>